<svg width="1952" height="734.935" viewBox="0 0 1952 734.93" xmlns="http://www.w3.org/2000/svg" xmlns:xlink="http://www.w3.org/1999/xlink" overflow="hidden"><g><path d="M1436.62 603.304 1493.01 460.705 1655.83 460.705 1578.56 244.39 1675.2 0.000528336 1952 734.933 1747.87 734.933 1700.57 603.304 1436.62 603.304Z" stroke-width="0.2" stroke-linejoin="round" fill="#3D3D3D" fill-opacity="1"/><path d="M1262.47 734.935 1558.79 0.00156593 1362.34 0.0025425 1159.64 474.933 1015.5 0.00351906 864.499 0.00351906 709.731 474.933 600.585 258.517 501.812 562.819 602.096 734.935 795.427 734.935 935.284 309.025 1068.63 734.935 1262.47 734.935Z" stroke-width="0.2" stroke-linejoin="round" fill="#25EE32" fill-opacity="1"/><path d="M186.476 482.643 307.479 482.643C344.133 482.643 376.772 478.552 405.396 470.37L436.689 373.962 524.148 104.516C517.484 93.9535 509.876 83.9667 501.324 74.5569 456.419 24.852 390.719 0.000406265 304.222 0.000406265L-3.8147e-06 0.000406265 -3.8147e-06 734.933 186.476 734.933 186.476 482.643ZM346.642 169.079C364.182 186.732 372.951 210.355 372.951 239.95 372.951 269.772 365.238 293.424 349.813 310.906 332.903 330.331 301.766 340.043 256.404 340.043L186.476 340.043 186.476 142.598 256.918 142.598C299.195 142.598 329.103 151.425 346.642 169.079Z" stroke-width="0.2" stroke-linejoin="round" fill="#3D3D3D" fill-opacity="1"/></g></svg>